<svg width="65" height="56" viewBox="0 0 65 56" fill="none" xmlns="http://www.w3.org/2000/svg">
<path d="M44.3613 39.9998C55.407 39.9998 64.3613 31.0455 64.3613 19.9999C64.3613 8.95426 55.407 0 44.3613 0C33.3156 0 24.3613 8.95426 24.3613 19.9999C24.3613 31.0455 33.3156 39.9998 44.3613 39.9998Z" fill="#ECF2F9"/>
<path d="M17.9152 11.6226H41.05L48.7615 19.3341V53.0723C48.7615 54.1327 47.894 55.0002 46.8337 55.0002H17.9152C16.8549 55.0002 15.9873 54.1327 15.9873 53.0723V13.5505C15.9873 12.4901 16.8549 11.6226 17.9152 11.6226Z" fill="white"/>
<path d="M40.0869 11.6226V20.2981H48.7624L40.0869 11.6226Z" fill="#3AD1B8"/>
<path d="M15.9873 13.5505C15.9873 12.4901 16.8549 11.6226 17.9152 11.6226H40.2215C40.752 11.6226 41.2607 11.8333 41.6357 12.2083L48.1758 18.7484C48.5508 19.1234 48.7615 19.6321 48.7615 20.1626V53.0723C48.7615 54.1327 47.894 55.0002 46.8337 55.0002H17.9152C16.8549 55.0002 15.9873 54.1327 15.9873 53.0723V13.5505Z" stroke="#2C2A47" stroke-width="2" stroke-miterlimit="10" stroke-linejoin="round"/>
<path d="M45.8706 20.2981H40.0869V14.5144" stroke="#2C2A47" stroke-width="2" stroke-miterlimit="10" stroke-linecap="round" stroke-linejoin="round"/>
<path d="M7.90347 17.8881L6.37079 16.3554C5.61891 15.6035 4.3947 15.6035 3.64282 16.3554L3.47895 16.5193C2.72707 17.2712 2.72707 18.4954 3.47895 19.2473L5.01163 20.7799" stroke="#2C2A47" stroke-width="2" stroke-linejoin="round"/>
<path d="M4.53027 21.262L29.5929 46.3247L37.3045 50.1805L33.4487 42.4689L8.38607 17.4062L4.53027 21.262Z" fill="#3AD1B8" stroke="#2C2A47" stroke-width="2" stroke-linejoin="round"/>
<path d="M33.4476 42.4685L29.5918 46.3243" stroke="#2C2A47" stroke-width="2" stroke-linejoin="round"/>
<path d="M11.2779 20.2981L4.53027 27.0457" stroke="#2C2A47" stroke-width="2" stroke-linejoin="round"/>
<path d="M1.6377 24.1541L11.2772 33.7935" stroke="#2C2A47" stroke-width="2" stroke-linecap="round" stroke-linejoin="round"/>
</svg>
